solid auto-kdk-case
facet normal 0.9205075432298513 0.3907247917101544 0
outer loop
vertex 79.96125030517578 -21.777063369750977 -29.325647354125977
vertex 80.05335998535156 -21.994064331054688 0
vertex 80.05335998535156 -21.994064331054688 -29.352764129638672
endloop
endfacet
facet normal -0.08682413108665395 0.08715502015762293 -0.9924039362690839
outer loop
vertex -40.863529205322266 -66.0718002319336 -22.644939422607422
vertex -88.21394348144531 -65.45789337158203 -18.44839859008789
vertex -90.49189758300781 -62.94719314575195 -18.028608322143555
endloop
endfacet
facet normal -0.08682406910477557 0.08715803057742443 -0.9924036773057393
outer loop
vertex -40.863529205322266 -66.0718002319336 -22.644939422607422
vertex -87.05697631835938 -65.97187805175781 -18.59476089477539
vertex -88.21394348144531 -65.45789337158203 -18.44839859008789
endloop
endfacet
facet normal -0.08682410127368542 0.08715572119375507 -0.9924038773106507
outer loop
vertex -40.863529205322266 -66.0718002319336 -22.644939422607422
vertex -90.89463806152344 -61.898075103759766 -17.901235580444336
vertex -90.78357696533203 -32.3868408203125 -15.319191932678223
endloop
endfacet
facet normal -0.08682381938820077 0.08715613637279437 -0.9924038655101117
outer loop
vertex -40.863529205322266 -66.0718002319336 -22.644939422607422
vertex -90.78357696533203 -32.3868408203125 -15.319191932678223
vertex -90.26968383789062 -31.232574462890625 -15.26278018951416
endloop
endfacet
facet normal -0.08682405023987862 0.0871558107771908 -0.9924038739080545
outer loop
vertex -40.863529205322266 -66.0718002319336 -22.644939422607422
vertex -90.26968383789062 -31.232574462890625 -15.26278018951416
vertex -87.76207733154297 -28.957427978515625 -15.282357215881348
endloop
endfacet
facet normal -0.08682461051453137 0.08715510536725932 -0.9924038868411499
outer loop
vertex -40.863529205322266 -66.0718002319336 -22.644939422607422
vertex -87.76207733154297 -28.957427978515625 -15.282357215881348
vertex -86.71916961669922 -28.554821014404297 -15.338242530822754
endloop
endfacet
facet normal -0.08682385809517087 0.08715602216169255 -0.9924038721540844
outer loop
vertex -40.863529205322266 -66.0718002319336 -22.644939422607422
vertex -86.71916961669922 -28.554821014404297 -15.338242530822754
vertex -83.14142608642578 -28.554821014404297 -15.651253700256348
endloop
endfacet
facet normal -0.08682418558653175 0.08715565380106437 -0.9924038758528427
outer loop
vertex -40.863529205322266 -66.0718002319336 -22.644939422607422
vertex -83.14142608642578 -28.554821014404297 -15.651253700256348
vertex -81.38478088378906 -26.80158805847168 -15.65096664428711
endloop
endfacet
facet normal -0.08682410146574157 0.08715574055550984 -0.9924038755934437
outer loop
vertex -40.863529205322266 -66.0718002319336 -22.644939422607422
vertex -81.38478088378906 -26.80158805847168 -15.65096664428711
vertex -38.50777816772461 28.445178985595703 -14.55029010772705
endloop
endfacet
facet normal -0.08682407758123542 0.08715571959626421 -0.9924038795237677
outer loop
vertex 44.26783752441406 -44.48351287841797 -28.197023391723633
vertex -18.302499771118164 -71.07981872558594 -25.058591842651367
vertex -40.863529205322266 -66.0718002319336 -22.644939422607422
endloop
endfacet
facet normal -0.08682413370025133 0.08715519110754348 -0.9924039210272237
outer loop
vertex -18.302499771118164 -71.07981872558594 -25.058591842651367
vertex -37.02738571166992 -71.07981872558594 -23.42037582397461
vertex -38.665000915527344 -69.78157043457031 -23.163087844848633
endloop
endfacet
facet normal -0.08682413229004607 0.0871552108719015 -0.9924039194148494
outer loop
vertex -18.302499771118164 -71.07981872558594 -25.058591842651367
vertex -38.665000915527344 -69.78157043457031 -23.163087844848633
vertex -39.23017120361328 -67.36956024169922 -22.901813507080078
endloop
endfacet
facet normal -0.08682387568168734 0.08715660038208915 -0.992403819834168
outer loop
vertex -18.302499771118164 -71.07981872558594 -25.058591842651367
vertex -39.23017120361328 -67.36956024169922 -22.901813507080078
vertex -40.863529205322266 -66.0718002319336 -22.644939422607422
endloop
endfacet
facet normal 0 -1 0
outer loop
vertex -37.02738571166992 -71.07981872558594 0
vertex -37.02738571166992 -71.07981872558594 -23.42037582397461
vertex -18.302499771118164 -71.07981872558594 -25.058591842651367
endloop
endfacet
facet normal -0.08682408266656834 0.08715574023026071 -0.9924038772667226
outer loop
vertex 44.26783752441406 -44.48351287841797 -28.197023391723633
vertex -40.863529205322266 -66.0718002319336 -22.644939422607422
vertex -38.50777816772461 28.445178985595703 -14.55029010772705
endloop
endfacet
facet normal -0.7406005082908949 -0.67194559833313 0
outer loop
vertex -88.21394348144531 -65.45789337158203 -18.44839859008789
vertex -90.49189758300781 -62.94719314575195 0
vertex -90.49189758300781 -62.94719314575195 -18.028608322143555
endloop
endfacet
facet normal -0.40599140462078176 -0.9138768950871035 0
outer loop
vertex -87.05697631835938 -65.97187805175781 -18.59476089477539
vertex -88.21394348144531 -65.45789337158203 0
vertex -88.21394348144531 -65.45789337158203 -18.44839859008789
endloop
endfacet
facet normal -0.002163119503914883 -0.9999976604542693 0
outer loop
vertex -40.863529205322266 -66.0718002319336 -22.644939422607422
vertex -87.05697631835938 -65.97187805175781 0
vertex -87.05697631835938 -65.97187805175781 -18.59476089477539
endloop
endfacet
facet normal -0.9335739379684256 -0.35838485228330486 0
outer loop
vertex -90.49189758300781 -62.94719314575195 -18.028608322143555
vertex -90.89463806152344 -61.898075103759766 0
vertex -90.89463806152344 -61.898075103759766 -17.901235580444336
endloop
endfacet
facet normal -0.9999929186745444 0.0037633231014648533 0
outer loop
vertex -90.89463806152344 -61.898075103759766 -17.901235580444336
vertex -90.78357696533203 -32.3868408203125 0
vertex -90.78357696533203 -32.3868408203125 -15.319191932678223
endloop
endfacet
facet normal -0.740600508290895 -0.67194559833313 0
outer loop
vertex -90.49189758300781 -62.94719314575195 0
vertex -88.21394348144531 -65.45789337158203 -18.44839859008789
vertex -88.21394348144531 -65.45789337158203 0
endloop
endfacet
facet normal -0.9335739379684256 -0.35838485228330486 0
outer loop
vertex -90.89463806152344 -61.898075103759766 0
vertex -90.49189758300781 -62.94719314575195 -18.028608322143555
vertex -90.49189758300781 -62.94719314575195 0
endloop
endfacet
facet normal -0.40599140462078176 -0.9138768950871035 0
outer loop
vertex -88.21394348144531 -65.45789337158203 0
vertex -87.05697631835938 -65.97187805175781 -18.59476089477539
vertex -87.05697631835938 -65.97187805175781 0
endloop
endfacet
facet normal -0.9999929186745444 0.0037633231014648533 0
outer loop
vertex -90.78357696533203 -32.3868408203125 0
vertex -90.89463806152344 -61.898075103759766 -17.901235580444336
vertex -90.89463806152344 -61.898075103759766 0
endloop
endfacet
facet normal -0.0021631195039148827 -0.9999976604542691 0
outer loop
vertex -87.05697631835938 -65.97187805175781 0
vertex -40.863529205322266 -66.0718002319336 -22.644939422607422
vertex -40.863529205322266 -66.0718002319336 0
endloop
endfacet
facet normal -0.9135511525838937 0.40672385178722825 0
outer loop
vertex -90.78357696533203 -32.3868408203125 -15.319191932678223
vertex -90.26968383789062 -31.232574462890625 0
vertex -90.26968383789062 -31.232574462890625 -15.26278018951416
endloop
endfacet
facet normal -0.6719454864466363 0.7406006098053074 0
outer loop
vertex -90.26968383789062 -31.232574462890625 -15.26278018951416
vertex -87.76207733154297 -28.957427978515625 0
vertex -87.76207733154297 -28.957427978515625 -15.282357215881348
endloop
endfacet
facet normal -0.3601387945771938 0.9328987343975154 0
outer loop
vertex -87.76207733154297 -28.957427978515625 -15.282357215881348
vertex -86.71916961669922 -28.554821014404297 0
vertex -86.71916961669922 -28.554821014404297 -15.338242530822754
endloop
endfacet
facet normal 0 1 0
outer loop
vertex -86.71916961669922 -28.554821014404297 -15.338242530822754
vertex -83.14142608642578 -28.554821014404297 0
vertex -83.14142608642578 -28.554821014404297 -15.651253700256348
endloop
endfacet
facet normal -0.7064190095924779 0.7077938844652323 0
outer loop
vertex -83.14142608642578 -28.554821014404297 -15.651253700256348
vertex -81.38478088378906 -26.80158805847168 0
vertex -81.38478088378906 -26.80158805847168 -15.65096664428711
endloop
endfacet
facet normal -0.9135511525838939 0.40672385178722825 0
outer loop
vertex -90.26968383789062 -31.232574462890625 0
vertex -90.78357696533203 -32.3868408203125 -15.319191932678223
vertex -90.78357696533203 -32.3868408203125 0
endloop
endfacet
facet normal -0.6719454864466363 0.7406006098053073 0
outer loop
vertex -87.76207733154297 -28.957427978515625 0
vertex -90.26968383789062 -31.232574462890625 -15.26278018951416
vertex -90.26968383789062 -31.232574462890625 0
endloop
endfacet
facet normal -0.3601387945771938 0.9328987343975153 0
outer loop
vertex -87.76207733154297 -28.957427978515625 -15.282357215881348
vertex -87.76207733154297 -28.957427978515625 0
vertex -86.71916961669922 -28.554821014404297 0
endloop
endfacet
facet normal 0 1 0
outer loop
vertex -86.71916961669922 -28.554821014404297 -15.338242530822754
vertex -86.71916961669922 -28.554821014404297 0
vertex -83.14142608642578 -28.554821014404297 0
endloop
endfacet
facet normal -0.7064190095924779 0.7077938844652323 0
outer loop
vertex -81.38478088378906 -26.80158805847168 0
vertex -83.14142608642578 -28.554821014404297 -15.651253700256348
vertex -83.14142608642578 -28.554821014404297 0
endloop
endfacet
facet normal 0 0 1
outer loop
vertex -87.76207733154297 -28.957427978515625 0
vertex -90.26968383789062 -31.232574462890625 0
vertex -83.14142608642578 -28.554821014404297 0
endloop
endfacet
facet normal 0 0 1
outer loop
vertex -86.71916961669922 -28.554821014404297 0
vertex -87.76207733154297 -28.957427978515625 0
vertex -83.14142608642578 -28.554821014404297 0
endloop
endfacet
facet normal -0.9999981065856927 0.00194597662622222 0
outer loop
vertex -81.28473663330078 24.609132766723633 0
vertex -81.38478088378906 -26.80158805847168 -15.65096664428711
vertex -81.38478088378906 -26.80158805847168 0
endloop
endfacet
facet normal -0.6220824908537496 -0.782951706411829 0
outer loop
vertex -39.23017120361328 -67.36956024169922 -22.901813507080078
vertex -40.863529205322266 -66.0718002319336 0
vertex -40.863529205322266 -66.0718002319336 -22.644939422607422
endloop
endfacet
facet normal -0.621233144975263 -0.7836257905302403 0
outer loop
vertex -37.02738571166992 -71.07981872558594 -23.42037582397461
vertex -38.665000915527344 -69.78157043457031 0
vertex -38.665000915527344 -69.78157043457031 -23.163087844848633
endloop
endfacet
facet normal -0.9736292769762454 -0.22813599237015156 0
outer loop
vertex -38.665000915527344 -69.78157043457031 -23.163087844848633
vertex -39.23017120361328 -67.36956024169922 0
vertex -39.23017120361328 -67.36956024169922 -22.901813507080078
endloop
endfacet
facet normal 0 -1 0
outer loop
vertex -37.02738571166992 -71.07981872558594 0
vertex -18.302499771118164 -71.07981872558594 -25.058591842651367
vertex 18.642305374145508 -71.07981872558594 0
endloop
endfacet
facet normal -0.6220824908537494 -0.7829517064118289 0
outer loop
vertex -40.863529205322266 -66.0718002319336 0
vertex -39.23017120361328 -67.36956024169922 -22.901813507080078
vertex -39.23017120361328 -67.36956024169922 0
endloop
endfacet
facet normal -0.9736292769762454 -0.22813599237015156 0
outer loop
vertex -39.23017120361328 -67.36956024169922 0
vertex -38.665000915527344 -69.78157043457031 -23.163087844848633
vertex -38.665000915527344 -69.78157043457031 0
endloop
endfacet
facet normal -0.6212331449752629 -0.7836257905302402 0
outer loop
vertex -38.665000915527344 -69.78157043457031 0
vertex -37.02738571166992 -71.07981872558594 -23.42037582397461
vertex -37.02738571166992 -71.07981872558594 0
endloop
endfacet
facet normal 0 0 1
outer loop
vertex -90.49189758300781 -62.94719314575195 0
vertex -88.21394348144531 -65.45789337158203 0
vertex 66.21060943603516 -6.178949356079102 0
endloop
endfacet
facet normal 0 0 1
outer loop
vertex 66.21060943603516 -6.178949356079102 0
vertex -88.21394348144531 -65.45789337158203 0
vertex -87.05697631835938 -65.97187805175781 0
endloop
endfacet
facet normal 0 0 1
outer loop
vertex -90.89463806152344 -61.898075103759766 0
vertex -90.49189758300781 -62.94719314575195 0
vertex 66.21060943603516 -6.178949356079102 0
endloop
endfacet
facet normal 0 0 1
outer loop
vertex -38.665000915527344 -69.78157043457031 0
vertex -37.02738571166992 -71.07981872558594 0
vertex 18.642305374145508 -71.07981872558594 0
endloop
endfacet
facet normal 0 0 1
outer loop
vertex -39.23017120361328 -67.36956024169922 0
vertex -38.665000915527344 -69.78157043457031 0
vertex 18.642305374145508 -71.07981872558594 0
endloop
endfacet
facet normal 0 0 1
outer loop
vertex -40.863529205322266 -66.0718002319336 0
vertex -39.23017120361328 -67.36956024169922 0
vertex 20.84309196472168 -67.3780746459961 0
endloop
endfacet
facet normal 0 0 1
outer loop
vertex -39.23017120361328 -67.36956024169922 0
vertex 18.642305374145508 -71.07981872558594 0
vertex 20.279918670654297 -69.78157043457031 0
endloop
endfacet
facet normal 0 0 1
outer loop
vertex 66.21060943603516 -6.178949356079102 0
vertex -87.05697631835938 -65.97187805175781 0
vertex -40.863529205322266 -66.0718002319336 0
endloop
endfacet
facet normal 0 0 1
outer loop
vertex -90.78357696533203 -32.3868408203125 0
vertex -90.89463806152344 -61.898075103759766 0
vertex 66.21060943603516 -6.178949356079102 0
endloop
endfacet
facet normal 0 0 1
outer loop
vertex -90.26968383789062 -31.232574462890625 0
vertex -90.78357696533203 -32.3868408203125 0
vertex 66.21060943603516 -6.178949356079102 0
endloop
endfacet
facet normal 0 0 1
outer loop
vertex -83.14142608642578 -28.554821014404297 0
vertex -90.26968383789062 -31.232574462890625 0
vertex 66.21060943603516 -6.178949356079102 0
endloop
endfacet
facet normal 0 0 1
outer loop
vertex -81.38478088378906 -26.80158805847168 0
vertex -83.14142608642578 -28.554821014404297 0
vertex 66.21060943603516 -6.178949356079102 0
endloop
endfacet
facet normal 0 0 1
outer loop
vertex -81.38478088378906 -26.80158805847168 0
vertex 66.21060943603516 -6.178949356079102 0
vertex -38.50777816772461 28.445178985595703 0
endloop
endfacet
facet normal -0.08682390984719213 0.08715597659153612 -0.992403871628493
outer loop
vertex 63.63957214355469 -48.94089126586914 -30.28329086303711
vertex -38.50777816772461 28.445178985595703 -14.55029010772705
vertex -36.76365661621094 30.13079261779785 -14.554844856262207
endloop
endfacet
facet normal -0.08682410100318655 0.08715573476437763 -0.9924038761425057
outer loop
vertex 63.63957214355469 -48.94089126586914 -30.28329086303711
vertex -36.76365661621094 30.13079261779785 -14.554844856262207
vertex -36.13941955566406 48.42237854003906 -13.003039360046387
endloop
endfacet
facet normal -0.08682399122271188 0.08715584722044509 -0.9924038758708296
outer loop
vertex 63.63957214355469 -48.94089126586914 -30.28329086303711
vertex -36.13941955566406 48.42237854003906 -13.003039360046387
vertex -35.63203048706055 49.521793365478516 -12.950876235961914
endloop
endfacet
facet normal -0.086824038212329 0.0871557998533865 -0.9924038759196886
outer loop
vertex 63.63957214355469 -48.94089126586914 -30.28329086303711
vertex -35.63203048706055 49.521793365478516 -12.950876235961914
vertex -33.16631317138672 51.773887634277344 -12.968812942504883
endloop
endfacet
facet normal -0.08682471533653285 0.0871551486567817 -0.9924038738685698
outer loop
vertex 63.63957214355469 -48.94089126586914 -30.28329086303711
vertex -33.16631317138672 51.773887634277344 -12.968812942504883
vertex -32.14756774902344 52.17921447753906 -13.022345542907715
endloop
endfacet
facet normal -0.08682288717381699 0.08715573447475831 -0.9924039823635171
outer loop
vertex -81.38478088378906 -26.80158805847168 -15.65096664428711
vertex -81.28473663330078 24.609132766723633 -11.144683837890625
vertex -80.77073669433594 25.766469955444336 -11.088011741638184
endloop
endfacet
facet normal -0.08682414071547599 0.08715573955909053 -0.992403872247044
outer loop
vertex -81.38478088378906 -26.80158805847168 -15.65096664428711
vertex -80.77073669433594 25.766469955444336 -11.088011741638184
vertex -78.26207733154297 28.042572021484375 -11.107597351074219
endloop
endfacet
facet normal -0.08682394429173076 0.08715572986927679 -0.9924038902828728
outer loop
vertex -81.38478088378906 -26.80158805847168 -15.65096664428711
vertex -78.26207733154297 28.042572021484375 -11.107597351074219
vertex -77.21916961669922 28.445178985595703 -11.163481712341309
endloop
endfacet
facet normal -0.9999981065856924 0.0019459766262222198 0
outer loop
vertex -81.38478088378906 -26.80158805847168 -15.65096664428711
vertex -81.28473663330078 24.609132766723633 0
vertex -81.28473663330078 24.609132766723633 -11.144683837890625
endloop
endfacet
facet normal -0.08682410142566296 0.0871557405245289 -0.9924038755996709
outer loop
vertex -81.38478088378906 -26.80158805847168 -15.65096664428711
vertex -77.21916961669922 28.445178985595703 -11.163481712341309
vertex -38.50777816772461 28.445178985595703 -14.55029010772705
endloop
endfacet
facet normal 0 1 0
outer loop
vertex -77.21916961669922 28.445178985595703 -11.163481712341309
vertex -38.50777816772461 28.445178985595703 0
vertex -38.50777816772461 28.445178985595703 -14.55029010772705
endloop
endfacet
facet normal 0 0 1
outer loop
vertex -81.28473663330078 24.609132766723633 0
vertex -81.38478088378906 -26.80158805847168 0
vertex -78.26207733154297 28.042572021484375 0
endloop
endfacet
facet normal 0 0 1
outer loop
vertex -77.21916961669922 28.445178985595703 0
vertex -78.26207733154297 28.042572021484375 0
vertex -81.38478088378906 -26.80158805847168 0
endloop
endfacet
facet normal -0.9139205821758277 0.40589305177028623 0
outer loop
vertex -81.28473663330078 24.609132766723633 -11.144683837890625
vertex -80.77073669433594 25.766469955444336 0
vertex -80.77073669433594 25.766469955444336 -11.088011741638184
endloop
endfacet
facet normal -0.6719455394068731 0.7406005617545848 0
outer loop
vertex -80.77073669433594 25.766469955444336 -11.088011741638184
vertex -78.26207733154297 28.042572021484375 0
vertex -78.26207733154297 28.042572021484375 -11.107597351074219
endloop
endfacet
facet normal -0.36013879457719383 0.9328987343975154 0
outer loop
vertex -78.26207733154297 28.042572021484375 -11.107597351074219
vertex -77.21916961669922 28.445178985595703 0
vertex -77.21916961669922 28.445178985595703 -11.163481712341309
endloop
endfacet
facet normal -0.9139205821758277 0.40589305177028623 0
outer loop
vertex -80.77073669433594 25.766469955444336 0
vertex -81.28473663330078 24.609132766723633 -11.144683837890625
vertex -81.28473663330078 24.609132766723633 0
endloop
endfacet
facet normal -0.6719455394068731 0.7406005617545847 0
outer loop
vertex -78.26207733154297 28.042572021484375 0
vertex -80.77073669433594 25.766469955444336 -11.088011741638184
vertex -80.77073669433594 25.766469955444336 0
endloop
endfacet
facet normal 0 0 1
outer loop
vertex -80.77073669433594 25.766469955444336 0
vertex -81.28473663330078 24.609132766723633 0
vertex -78.26207733154297 28.042572021484375 0
endloop
endfacet
facet normal -0.3601387945771938 0.9328987343975154 0
outer loop
vertex -78.26207733154297 28.042572021484375 -11.107597351074219
vertex -78.26207733154297 28.042572021484375 0
vertex -77.21916961669922 28.445178985595703 0
endloop
endfacet
facet normal 0 0 1
outer loop
vertex -38.50777816772461 28.445178985595703 0
vertex -77.21916961669922 28.445178985595703 0
vertex -81.38478088378906 -26.80158805847168 0
endloop
endfacet
facet normal 0 1 0
outer loop
vertex -38.50777816772461 28.445178985595703 0
vertex -77.21916961669922 28.445178985595703 -11.163481712341309
vertex -77.21916961669922 28.445178985595703 0
endloop
endfacet
facet normal -0.6949431224374528 0.7190647095893966 0
outer loop
vertex -38.50777816772461 28.445178985595703 -14.55029010772705
vertex -36.76365661621094 30.13079261779785 0
vertex -36.76365661621094 30.13079261779785 -14.554844856262207
endloop
endfacet
facet normal -0.6949431224374529 0.7190647095893967 0
outer loop
vertex -38.50777816772461 28.445178985595703 -14.55029010772705
vertex -38.50777816772461 28.445178985595703 0
vertex -36.76365661621094 30.13079261779785 0
endloop
endfacet
facet normal 0 0 1
outer loop
vertex -36.76365661621094 30.13079261779785 0
vertex -38.50777816772461 28.445178985595703 0
vertex 66.21060943603516 -6.178949356079102 0
endloop
endfacet
facet normal 0 0 1
outer loop
vertex -36.76365661621094 30.13079261779785 0
vertex 66.21060943603516 -6.178949356079102 0
vertex -36.13941955566406 48.42237854003906 0
endloop
endfacet
facet normal 0 0 1
outer loop
vertex -36.13941955566406 48.42237854003906 0
vertex 66.21060943603516 -6.178949356079102 0
vertex -35.63203048706055 49.521793365478516 0
endloop
endfacet
facet normal 0 0 1
outer loop
vertex -35.63203048706055 49.521793365478516 0
vertex 66.21060943603516 -6.178949356079102 0
vertex -33.16631317138672 51.773887634277344 0
endloop
endfacet
facet normal -0.9994181818970644 0.03410715018242028 0
outer loop
vertex -36.76365661621094 30.13079261779785 -14.554844856262207
vertex -36.13941955566406 48.42237854003906 0
vertex -36.13941955566406 48.42237854003906 -13.003039360046387
endloop
endfacet
facet normal -0.90796980369216 0.419035601808749 0
outer loop
vertex -36.13941955566406 48.42237854003906 -13.003039360046387
vertex -35.63203048706055 49.521793365478516 0
vertex -35.63203048706055 49.521793365478516 -12.950876235961914
endloop
endfacet
facet normal -0.6743979042435457 0.738368110600609 0
outer loop
vertex -35.63203048706055 49.521793365478516 -12.950876235961914
vertex -33.16631317138672 51.773887634277344 0
vertex -33.16631317138672 51.773887634277344 -12.968812942504883
endloop
endfacet
facet normal -0.36968282303785394 0.9291580115086792 0
outer loop
vertex -33.16631317138672 51.773887634277344 -12.968812942504883
vertex -32.14756774902344 52.17921447753906 0
vertex -32.14756774902344 52.17921447753906 -13.022345542907715
endloop
endfacet
facet normal -0.9994181818970644 0.03410715018242028 0
outer loop
vertex -36.13941955566406 48.42237854003906 0
vertex -36.76365661621094 30.13079261779785 -14.554844856262207
vertex -36.76365661621094 30.13079261779785 0
endloop
endfacet
facet normal -0.90796980369216 0.419035601808749 0
outer loop
vertex -35.63203048706055 49.521793365478516 0
vertex -36.13941955566406 48.42237854003906 -13.003039360046387
vertex -36.13941955566406 48.42237854003906 0
endloop
endfacet
facet normal -0.6743979042435457 0.7383681106006091 0
outer loop
vertex -33.16631317138672 51.773887634277344 0
vertex -35.63203048706055 49.521793365478516 -12.950876235961914
vertex -35.63203048706055 49.521793365478516 0
endloop
endfacet
facet normal -0.36968282303785394 0.9291580115086792 0
outer loop
vertex -33.16631317138672 51.773887634277344 -12.968812942504883
vertex -33.16631317138672 51.773887634277344 0
vertex -32.14756774902344 52.17921447753906 0
endloop
endfacet
facet normal -0.017179074088372857 0.9998524288181062 0
outer loop
vertex 25.133249282836914 53.16339111328125 0
vertex -32.14756774902344 52.17921447753906 -13.022345542907715
vertex -32.14756774902344 52.17921447753906 0
endloop
endfacet
facet normal -0.08682410243989368 0.08715568742353108 -0.9924038801744169
outer loop
vertex 20.279918670654297 -69.78157043457031 -28.320100784301758
vertex 18.642305374145508 -71.07981872558594 -28.290843963623047
vertex -18.302499771118164 -71.07981872558594 -25.058591842651367
endloop
endfacet
facet normal -0.08682411732947146 0.08715625939174765 -0.992403828639731
outer loop
vertex 20.84309196472168 -67.3780746459961 -28.158288955688477
vertex 20.279918670654297 -69.78157043457031 -28.320100784301758
vertex -18.302499771118164 -71.07981872558594 -25.058591842651367
endloop
endfacet
facet normal -0.0868240130695777 0.08715506109309554 -0.9924039429991965
outer loop
vertex 22.48070526123047 -66.07981872558594 -28.187545776367188
vertex 20.84309196472168 -67.3780746459961 -28.158288955688477
vertex -18.302499771118164 -71.07981872558594 -25.058591842651367
endloop
endfacet
facet normal -0.08682409312836674 0.08715575671757506 -0.9924038749034708
outer loop
vertex 44.26783752441406 -44.48351287841797 -28.197023391723633
vertex 22.48070526123047 -66.07981872558594 -28.187545776367188
vertex -18.302499771118164 -71.07981872558594 -25.058591842651367
endloop
endfacet
facet normal -0.08682414236751403 0.08715580639560795 -0.9924038662327334
outer loop
vertex 44.26783752441406 -44.48351287841797 -28.197023391723633
vertex 40.34684371948242 -66.07981872558594 -29.75063133239746
vertex 22.48070526123047 -66.07981872558594 -28.187545776367188
endloop
endfacet
facet normal -0.0868226544129396 0.08715554724683797 -0.992404019170013
outer loop
vertex 44.26783752441406 -44.48351287841797 -28.197023391723633
vertex 41.38975143432617 -65.67721557617188 -29.806514739990234
vertex 40.34684371948242 -66.07981872558594 -29.75063133239746
endloop
endfacet
facet normal -0.08682454859357297 0.08715579026909272 -0.9924038321087298
outer loop
vertex 44.26783752441406 -44.48351287841797 -28.197023391723633
vertex 43.90448760986328 -63.39560317993164 -29.826148986816406
vertex 41.38975143432617 -65.67721557617188 -29.806514739990234
endloop
endfacet
facet normal -0.08682450627351525 0.08715578977867032 -0.9924038358543444
outer loop
vertex 44.26783752441406 -44.48351287841797 -28.197023391723633
vertex 44.419002532958984 -62.22055435180664 -29.767967224121094
vertex 43.90448760986328 -63.39560317993164 -29.826148986816406
endloop
endfacet
facet normal 0 -1 0
outer loop
vertex 18.642305374145508 -71.07981872558594 -28.290843963623047
vertex 18.642305374145508 -71.07981872558594 0
vertex -18.302499771118164 -71.07981872558594 -25.058591842651367
endloop
endfacet
facet normal 0.6212335892897711 -0.7836254382918845 0
outer loop
vertex 20.279918670654297 -69.78157043457031 -28.320100784301758
vertex 18.642305374145508 -71.07981872558594 0
vertex 18.642305374145508 -71.07981872558594 -28.290843963623047
endloop
endfacet
facet normal 0.9736294516196091 -0.22813524703319982 0
outer loop
vertex 20.84309196472168 -67.3780746459961 -28.158288955688477
vertex 20.279918670654297 -69.78157043457031 0
vertex 20.279918670654297 -69.78157043457031 -28.320100784301758
endloop
endfacet
facet normal 0.6212358311204991 -0.7836236610338043 0
outer loop
vertex 22.48070526123047 -66.07981872558594 -28.187545776367188
vertex 20.84309196472168 -67.3780746459961 0
vertex 20.84309196472168 -67.3780746459961 -28.158288955688477
endloop
endfacet
facet normal 0 -1 0
outer loop
vertex 40.34684371948242 -66.07981872558594 -29.75063133239746
vertex 22.48070526123047 -66.07981872558594 0
vertex 22.48070526123047 -66.07981872558594 -28.187545776367188
endloop
endfacet
facet normal 0.36013582483663614 -0.9328998808389011 0
outer loop
vertex 41.38975143432617 -65.67721557617188 -29.806514739990234
vertex 40.34684371948242 -66.07981872558594 0
vertex 40.34684371948242 -66.07981872558594 -29.75063133239746
endloop
endfacet
facet normal 0.671945030430162 -0.7406010235479078 0
outer loop
vertex 43.90448760986328 -63.39560317993164 -29.826148986816406
vertex 41.38975143432617 -65.67721557617188 0
vertex 41.38975143432617 -65.67721557617188 -29.806514739990234
endloop
endfacet
facet normal 0.9160338922873366 -0.40110087033178077 0
outer loop
vertex 44.419002532958984 -62.22055435180664 -29.767967224121094
vertex 43.90448760986328 -63.39560317993164 0
vertex 43.90448760986328 -63.39560317993164 -29.826148986816406
endloop
endfacet
facet normal 0.9999636849597726 0.00852225097451252 0
outer loop
vertex 44.26783752441406 -44.48351287841797 -28.197023391723633
vertex 44.419002532958984 -62.22055435180664 0
vertex 44.419002532958984 -62.22055435180664 -29.767967224121094
endloop
endfacet
facet normal 0.3906377993451813 -0.9205444637402117 0
outer loop
vertex 47.95795822143555 -42.9175910949707 -28.382343292236328
vertex 44.26783752441406 -44.48351287841797 0
vertex 44.26783752441406 -44.48351287841797 -28.197023391723633
endloop
endfacet
facet normal -0.08682431660535565 0.08715546496555039 -0.9924038809741988
outer loop
vertex -38.50777816772461 28.445178985595703 -14.55029010772705
vertex 54.643341064453125 -47.54075241088867 -29.373258590698242
vertex 52.11524963378906 -46.28029251098633 -29.0413818359375
endloop
endfacet
facet normal -0.08682342911108634 0.0871565492472303 -0.9924038633946903
outer loop
vertex -38.50777816772461 28.445178985595703 -14.55029010772705
vertex 57.55606460571289 -48.47852325439453 -29.710445404052734
vertex 54.861915588378906 -47.62906265258789 -29.400136947631836
endloop
endfacet
facet normal -0.08682715857203625 0.08715190784982768 -0.9924039447182995
outer loop
vertex -38.50777816772461 28.445178985595703 -14.55029010772705
vertex 57.785762786865234 -48.531551361083984 -29.735198974609375
vertex 57.55606460571289 -48.47852325439453 -29.710445404052734
endloop
endfacet
facet normal -0.08682324409600779 0.08715677560454596 -0.9924038597017164
outer loop
vertex -38.50777816772461 28.445178985595703 -14.55029010772705
vertex 54.861915588378906 -47.62906265258789 -29.400136947631836
vertex 54.643341064453125 -47.54075241088867 -29.373258590698242
endloop
endfacet
facet normal -0.08682409278561877 0.08715572967769764 -0.9924038773081766
outer loop
vertex -38.50777816772461 28.445178985595703 -14.55029010772705
vertex 60.57962417602539 -48.9490966796875 -30.016300201416016
vertex 57.785762786865234 -48.531551361083984 -29.735198974609375
endloop
endfacet
facet normal -0.08682377106344646 0.08715614000011741 -0.9924038694194024
outer loop
vertex -38.50777816772461 28.445178985595703 -14.55029010772705
vertex 60.814788818359375 -48.96554183959961 -30.038318634033203
vertex 60.57962417602539 -48.9490966796875 -30.016300201416016
endloop
endfacet
facet normal -0.0868242959654109 0.0871554691197568 -0.9924038824151313
outer loop
vertex -38.50777816772461 28.445178985595703 -14.55029010772705
vertex 63.63957214355469 -48.94089126586914 -30.28329086303711
vertex 60.814788818359375 -48.96554183959961 -30.038318634033203
endloop
endfacet
facet normal -0.08682333450318691 0.08715645766440872 -0.9924038797148769
outer loop
vertex 63.87441635131836 -48.920345306396484 -30.302032470703125
vertex 63.63957214355469 -48.94089126586914 -30.28329086303711
vertex -32.14756774902344 52.17921447753906 -13.022345542907715
endloop
endfacet
facet normal -0.08682417058560463 0.08715566299914992 -0.9924038763574539
outer loop
vertex 67.3169174194336 -48.344268798828125 -30.55261993408203
vertex 63.87441635131836 -48.920345306396484 -30.302032470703125
vertex -32.14756774902344 52.17921447753906 -13.022345542907715
endloop
endfacet
facet normal -0.08682405732881318 0.08715577507429771 -0.9924038764233851
outer loop
vertex 81.52398681640625 -31.41293716430664 -30.308618545532227
vertex 67.3169174194336 -48.344268798828125 -30.55261993408203
vertex -32.14756774902344 52.17921447753906 -13.022345542907715
endloop
endfacet
facet normal -0.08682401417289783 0.08715583347930793 -0.9924038750697377
outer loop
vertex 81.4935302734375 -27.922706604003906 -29.999431610107422
vertex 81.52398681640625 -31.41293716430664 -30.308618545532227
vertex -32.14756774902344 52.17921447753906 -13.022345542907715
endloop
endfacet
facet normal -0.08682835900778103 0.0871497029742503 -0.992404033316832
outer loop
vertex 81.47298431396484 -27.687862396240234 -29.97701072692871
vertex 81.4935302734375 -27.922706604003906 -29.999431610107422
vertex -32.14756774902344 52.17921447753906 -13.022345542907715
endloop
endfacet
facet normal -0.08682402327293905 0.08715583724722127 -0.9924038739426787
outer loop
vertex 81.00674438476562 -24.90171241760254 -29.691532135009766
vertex 81.47298431396484 -27.687862396240234 -29.97701072692871
vertex -32.14756774902344 52.17921447753906 -13.022345542907715
endloop
endfacet
facet normal -0.08682406720165632 0.08715575774855262 -0.9924038770812204
outer loop
vertex 47.95795822143555 -42.9175910949707 -28.382343292236328
vertex 44.26783752441406 -44.48351287841797 -28.197023391723633
vertex -38.50777816772461 28.445178985595703 -14.55029010772705
endloop
endfacet
facet normal -0.08683212372047912 0.08714602521263345 -0.992404026886142
outer loop
vertex -38.50777816772461 28.445178985595703 -14.55029010772705
vertex 52.11524963378906 -46.28029251098633 -29.0413818359375
vertex 47.95795822143555 -42.9175910949707 -28.382343292236328
endloop
endfacet
facet normal -0.08681082783103154 0.08717226667090161 -0.9924035852891445
outer loop
vertex 47.95795822143555 -42.9175910949707 -28.382343292236328
vertex 52.11524963378906 -46.28029251098633 -29.0413818359375
vertex 51.91318130493164 -46.15887451171875 -29.01304054260254
endloop
endfacet
facet normal -0.08682281255371968 0.08715768730149806 -0.9924038173871138
outer loop
vertex 47.95795822143555 -42.9175910949707 -28.382343292236328
vertex 51.91318130493164 -46.15887451171875 -29.01304054260254
vertex 49.61339569091797 -44.51845169067383 -28.667768478393555
endloop
endfacet
facet normal -0.08685165305284984 0.08712788028114107 -0.9924039111368428
outer loop
vertex 49.43280792236328 -44.366920471191406 -28.638660430908203
vertex 47.95795822143555 -42.9175910949707 -28.382343292236328
vertex 49.61339569091797 -44.51845169067383 -28.667768478393555
endloop
endfacet
facet normal -0.08682360756073991 0.08715561020912825 -0.9924039302517969
outer loop
vertex 82.08554077148438 -32.603599548339844 -30.462316513061523
vertex 77.88703918457031 -54.20012664794922 -31.991662979125977
vertex 75.41121673583984 -54.41673278808594 -31.79408073425293
endloop
endfacet
facet normal -0.0868241498193604 0.08715577236207081 -0.9924038685697049
outer loop
vertex 82.08554077148438 -32.603599548339844 -30.462316513061523
vertex 75.41121673583984 -54.41673278808594 -31.79408073425293
vertex 68.58699798583984 -48.69053268432617 -30.69414710998535
endloop
endfacet
facet normal -0.08682385055326818 0.08715560204876538 -0.9924039097094595
outer loop
vertex 81.52398681640625 -31.41293716430664 -30.308618545532227
vertex 68.58699798583984 -48.69053268432617 -30.69414710998535
vertex 67.3169174194336 -48.344268798828125 -30.55261993408203
endloop
endfacet
facet normal -0.08682472679811205 0.08715625516632657 -0.9924037756890163
outer loop
vertex 81.52398681640625 -31.41293716430664 -30.308618545532227
vertex 82.08554077148438 -32.603599548339844 -30.462316513061523
vertex 68.58699798583984 -48.69053268432617 -30.69414710998535
endloop
endfacet
facet normal -0.08682409036527179 0.08715570051656361 -0.9924038800809428
outer loop
vertex 82.08554077148438 -32.603599548339844 -30.462316513061523
vertex 89.1263656616211 -40.80562210083008 -31.798633575439453
vertex 77.88703918457031 -54.20012664794922 -31.991662979125977
endloop
endfacet
facet normal -0.08682353398694795 0.08715617920714146 -0.9924038867175149
outer loop
vertex 82.08554077148438 -32.603599548339844 -30.462316513061523
vertex 88.90975952148438 -38.32979965209961 -31.56224822998047
vertex 89.1263656616211 -40.80562210083008 -31.798633575439453
endloop
endfacet
facet normal -0.06976004580641708 -0.9975638004704694 0
outer loop
vertex 60.814788818359375 -48.96554183959961 -30.038318634033203
vertex 60.57962417602539 -48.9490966796875 0
vertex 60.57962417602539 -48.9490966796875 -30.016300201416016
endloop
endfacet
facet normal 0.008726203869739175 -0.9999619259581954 0
outer loop
vertex 63.63957214355469 -48.94089126586914 -30.28329086303711
vertex 60.814788818359375 -48.96554183959961 0
vertex 60.814788818359375 -48.96554183959961 -30.038318634033203
endloop
endfacet
facet normal 0.0871547054675706 -0.99619478884145 0
outer loop
vertex 63.63957214355469 -48.94089126586914 -30.28329086303711
vertex 63.87441635131836 -48.920345306396484 -30.302032470703125
vertex 63.87441635131836 -48.920345306396484 0
endloop
endfacet
facet normal 0.16504743782366427 -0.986285629656969 0
outer loop
vertex 67.3169174194336 -48.344268798828125 -30.55261993408203
vertex 63.87441635131836 -48.920345306396484 0
vertex 63.87441635131836 -48.920345306396484 -30.302032470703125
endloop
endfacet
facet normal -0.2630313416760667 -0.9647872891451713 0
outer loop
vertex 68.58699798583984 -48.69053268432617 -30.69414710998535
vertex 67.3169174194336 -48.344268798828125 0
vertex 67.3169174194336 -48.344268798828125 -30.55261993408203
endloop
endfacet
facet normal -0.6427878324596379 -0.7660442561900979 0
outer loop
vertex 49.61339569091797 -44.51845169067383 -28.667768478393555
vertex 49.43280792236328 -44.366920471191406 0
vertex 49.43280792236328 -44.366920471191406 -28.638660430908203
endloop
endfacet
facet normal -0.5807033510318003 -0.8141152363765451 0
outer loop
vertex 51.91318130493164 -46.15887451171875 -29.01304054260254
vertex 49.61339569091797 -44.51845169067383 0
vertex 49.61339569091797 -44.51845169067383 -28.667768478393555
endloop
endfacet
facet normal -0.44619781568861994 -0.8949343603162773 0
outer loop
vertex 54.643341064453125 -47.54075241088867 -29.373258590698242
vertex 52.11524963378906 -46.28029251098633 0
vertex 52.11524963378906 -46.28029251098633 -29.0413818359375
endloop
endfacet
facet normal -0.5150477307527256 -0.8571614988124863 0
outer loop
vertex 52.11524963378906 -46.28029251098633 -29.0413818359375
vertex 51.91318130493164 -46.15887451171875 0
vertex 51.91318130493164 -46.15887451171875 -29.01304054260254
endloop
endfacet
facet normal -0.3746080584103096 -0.9271832626692837 0
outer loop
vertex 54.861915588378906 -47.62906265258789 -29.400136947631836
vertex 54.643341064453125 -47.54075241088867 0
vertex 54.643341064453125 -47.54075241088867 -29.373258590698242
endloop
endfacet
facet normal -0.3007053743480826 -0.9537170847993546 0
outer loop
vertex 57.55606460571289 -48.47852325439453 -29.710445404052734
vertex 54.861915588378906 -47.62906265258789 0
vertex 54.861915588378906 -47.62906265258789 -29.400136947631836
endloop
endfacet
facet normal -0.7009089227221215 -0.7132507848215206 0
outer loop
vertex 49.43280792236328 -44.366920471191406 -28.638660430908203
vertex 47.95795822143555 -42.9175910949707 0
vertex 47.95795822143555 -42.9175910949707 -28.382343292236328
endloop
endfacet
facet normal -0.22494341494115075 -0.9743718284487771 0
outer loop
vertex 57.785762786865234 -48.531551361083984 -29.735198974609375
vertex 57.55606460571289 -48.47852325439453 0
vertex 57.55606460571289 -48.47852325439453 -29.710445404052734
endloop
endfacet
facet normal -0.14780938909448466 -0.9890158666550882 0
outer loop
vertex 60.57962417602539 -48.9490966796875 -30.016300201416016
vertex 57.785762786865234 -48.531551361083984 0
vertex 57.785762786865234 -48.531551361083984 -29.735198974609375
endloop
endfacet
facet normal 0.0871556401122236 -0.9961947070711772 0
outer loop
vertex 77.88703918457031 -54.20012664794922 -31.991662979125977
vertex 75.41121673583984 -54.41673278808594 0
vertex 75.41121673583984 -54.41673278808594 -31.79408073425293
endloop
endfacet
facet normal -0.6427876536609808 -0.7660444062200383 0
outer loop
vertex 75.41121673583984 -54.41673278808594 -31.79408073425293
vertex 68.58699798583984 -48.69053268432617 0
vertex 68.58699798583984 -48.69053268432617 -30.69414710998535
endloop
endfacet
facet normal 0.7660443684426258 -0.6427876986823398 0
outer loop
vertex 89.1263656616211 -40.80562210083008 -31.798633575439453
vertex 77.88703918457031 -54.20012664794922 0
vertex 77.88703918457031 -54.20012664794922 -31.991662979125977
endloop
endfacet
facet normal 0.9961947070711773 0.0871556401122236 0
outer loop
vertex 88.90975952148438 -38.32979965209961 -31.56224822998047
vertex 89.1263656616211 -40.80562210083008 0
vertex 89.1263656616211 -40.80562210083008 -31.798633575439453
endloop
endfacet
facet normal 0.6427876536609808 0.7660444062200382 0
outer loop
vertex 82.08554077148438 -32.603599548339844 -30.462316513061523
vertex 88.90975952148438 -38.32979965209961 0
vertex 88.90975952148438 -38.32979965209961 -31.56224822998047
endloop
endfacet
facet normal -0.08682408788599837 0.08715581194360579 -0.9924038705120085
outer loop
vertex 76.85162353515625 -16.800626754760742 -28.616544723510742
vertex 78.53193664550781 -19.071435928344727 -28.962982177734375
vertex 66.32305908203125 -10.45677375793457 -27.13827896118164
endloop
endfacet
facet normal -0.08682362113122473 0.08715658038200054 -0.9924038438608436
outer loop
vertex 76.69696807861328 -16.622711181640625 -28.58738899230957
vertex 76.85162353515625 -16.800626754760742 -28.616544723510742
vertex 66.32305908203125 -10.45677375793457 -27.13827896118164
endloop
endfacet
facet normal -0.0868248828721282 0.08715445681987974 -0.992403919969421
outer loop
vertex 74.68211364746094 -14.642720222473145 -28.237224578857422
vertex 76.69696807861328 -16.622711181640625 -28.58738899230957
vertex 69.25299835205078 -11.38058090209961 -27.47574806213379
endloop
endfacet
facet normal -0.0868130892883308 0.0871737137480858 -0.9924032603531606
outer loop
vertex 74.50152587890625 -14.491189002990723 -28.20811653137207
vertex 74.68211364746094 -14.642720222473145 -28.237224578857422
vertex 69.47157287597656 -11.468891143798828 -27.502626419067383
endloop
endfacet
facet normal -0.08680069951491483 0.08718832741111064 -0.9924030603172153
outer loop
vertex 72.20173645019531 -12.8507661819458 -27.862844467163086
vertex 74.50152587890625 -14.491189002990723 -28.20811653137207
vertex 71.99966430664062 -12.729351043701172 -27.834503173828125
endloop
endfacet
facet normal -0.08682495408116855 0.08715435625283412 -0.9924039225713275
outer loop
vertex 76.69696807861328 -16.622711181640625 -28.58738899230957
vertex 66.32305908203125 -10.45677375793457 -27.13827896118164
vertex 69.25299835205078 -11.38058090209961 -27.47574806213379
endloop
endfacet
facet normal -0.08682517770355468 0.08715375751556939 -0.9924039555884808
outer loop
vertex 74.50152587890625 -14.491189002990723 -28.20811653137207
vertex 69.47157287597656 -11.468891143798828 -27.502626419067383
vertex 71.99966430664062 -12.729351043701172 -27.834503173828125
endloop
endfacet
facet normal -0.08682275205324302 0.08715797450251977 -0.9924037974567204
outer loop
vertex 74.68211364746094 -14.642720222473145 -28.237224578857422
vertex 69.25299835205078 -11.38058090209961 -27.47574806213379
vertex 69.47157287597656 -11.468891143798828 -27.502626419067383
endloop
endfacet
facet normal 0.9996546851266057 0.0262775665621212 0
outer loop
vertex 66.21060943603516 -6.178949356079102 -26.752750396728516
vertex 66.32305908203125 -10.45677375793457 0
vertex 66.32305908203125 -10.45677375793457 -27.13827896118164
endloop
endfacet
facet normal 0.9044548177559775 0.42656943472077513 0
outer loop
vertex 81.52398681640625 -31.41293716430664 -30.308618545532227
vertex 82.08554077148438 -32.603599548339844 0
vertex 82.08554077148438 -32.603599548339844 -30.462316513061523
endloop
endfacet
facet normal 0.9999619286583804 0.008725894441958143 0
outer loop
vertex 81.4935302734375 -27.922706604003906 -29.999431610107422
vertex 81.52398681640625 -31.41293716430664 0
vertex 81.52398681640625 -31.41293716430664 -30.308618545532227
endloop
endfacet
facet normal 0.8870107506802652 0.46174877171209927 0
outer loop
vertex 78.6568603515625 -19.27135467529297 -28.99146842956543
vertex 79.96125030517578 -21.777063369750977 0
vertex 79.96125030517578 -21.777063369750977 -29.325647354125977
endloop
endfacet
facet normal 0.8038564013903698 0.5948234073603061 0
outer loop
vertex 78.53193664550781 -19.071435928344727 0
vertex 78.53193664550781 -19.071435928344727 -28.962982177734375
vertex 76.85162353515625 -16.800626754760742 -28.616544723510742
endloop
endfacet
facet normal 0.8480469367006945 0.52992111974573 0
outer loop
vertex 78.53193664550781 -19.071435928344727 -28.962982177734375
vertex 78.6568603515625 -19.27135467529297 0
vertex 78.6568603515625 -19.27135467529297 -28.99146842956543
endloop
endfacet
facet normal 0.99619478884145 0.0871547054675706 0
outer loop
vertex 81.47298431396484 -27.687862396240234 -29.97701072692871
vertex 81.4935302734375 -27.922706604003906 0
vertex 81.4935302734375 -27.922706604003906 -29.999431610107422
endloop
endfacet
facet normal 0.9862856982038741 0.16504702820255954 0
outer loop
vertex 81.00674438476562 -24.90171241760254 -29.691532135009766
vertex 81.47298431396484 -27.687862396240234 0
vertex 81.47298431396484 -27.687862396240234 -29.97701072692871
endloop
endfacet
facet normal 0.9702889103906481 0.24194923098230497 0
outer loop
vertex 80.94970703125 -24.672975540161133 -29.666454315185547
vertex 81.00674438476562 -24.90171241760254 0
vertex 81.00674438476562 -24.90171241760254 -29.691532135009766
endloop
endfacet
facet normal 0.9483240925799759 0.3173033492296692 0
outer loop
vertex 80.05335998535156 -21.994064331054688 -29.352764129638672
vertex 80.94970703125 -24.672975540161133 0
vertex 80.94970703125 -24.672975540161133 -29.666454315185547
endloop
endfacet
facet normal -0.08682401380057687 0.08715668249215333 -0.9924038005391349
outer loop
vertex -40.863529205322266 -66.0718002319336 -22.644939422607422
vertex -90.49189758300781 -62.94719314575195 -18.028608322143555
vertex -90.89463806152344 -61.898075103759766 -17.901235580444336
endloop
endfacet
facet normal 0.5807027126235853 0.8141156917487893 0
outer loop
vertex 72.20173645019531 -12.8507661819458 -27.862844467163086
vertex 74.50152587890625 -14.491189002990723 0
vertex 74.50152587890625 -14.491189002990723 -28.20811653137207
endloop
endfacet
facet normal 0.3746080584103096 0.9271832626692837 0
outer loop
vertex 69.25299835205078 -11.38058090209961 -27.47574806213379
vertex 69.47157287597656 -11.468891143798828 0
vertex 69.47157287597656 -11.468891143798828 -27.502626419067383
endloop
endfacet
facet normal 0.30070604845456045 0.9537168722544671 0
outer loop
vertex 66.32305908203125 -10.45677375793457 -27.13827896118164
vertex 69.25299835205078 -11.38058090209961 0
vertex 69.25299835205078 -11.38058090209961 -27.47574806213379
endloop
endfacet
facet normal 0.5150316700552839 0.8571711490945465 0
outer loop
vertex 71.99966430664062 -12.729351043701172 -27.834503173828125
vertex 72.20173645019531 -12.8507661819458 0
vertex 72.20173645019531 -12.8507661819458 -27.862844467163086
endloop
endfacet
facet normal 0.44619781568862 0.8949343603162773 0
outer loop
vertex 69.47157287597656 -11.468891143798828 -27.502626419067383
vertex 71.99966430664062 -12.729351043701172 0
vertex 71.99966430664062 -12.729351043701172 -27.834503173828125
endloop
endfacet
facet normal 0.7547183840687 0.656048901187046 0
outer loop
vertex 76.69696807861328 -16.622711181640625 -28.58738899230957
vertex 76.85162353515625 -16.800626754760742 0
vertex 76.85162353515625 -16.800626754760742 -28.616544723510742
endloop
endfacet
facet normal 0.7009090885523929 0.7132506218606849 0
outer loop
vertex 74.68211364746094 -14.642720222473145 -28.237224578857422
vertex 76.69696807861328 -16.622711181640625 0
vertex 76.69696807861328 -16.622711181640625 -28.58738899230957
endloop
endfacet
facet normal 0.642787832459638 0.766044256190098 0
outer loop
vertex 74.50152587890625 -14.491189002990723 -28.20811653137207
vertex 74.68211364746094 -14.642720222473145 0
vertex 74.68211364746094 -14.642720222473145 -28.237224578857422
endloop
endfacet
facet normal 0.3503964455637137 -0.9366014792516162 0
outer loop
vertex 66.21060943603516 -6.178949356079102 0
vertex 66.21060943603516 -6.178949356079102 -26.752750396728516
vertex 85.04627227783203 0.8677502870559692 -27.781797409057617
endloop
endfacet
facet normal 0.6212335892897711 -0.7836254382918846 0
outer loop
vertex 18.642305374145508 -71.07981872558594 0
vertex 20.279918670654297 -69.78157043457031 -28.320100784301758
vertex 20.279918670654297 -69.78157043457031 0
endloop
endfacet
facet normal 0.9736294516196092 -0.22813524703319984 0
outer loop
vertex 20.84309196472168 -67.3780746459961 -28.158288955688477
vertex 20.84309196472168 -67.3780746459961 0
vertex 20.279918670654297 -69.78157043457031 0
endloop
endfacet
facet normal 0.6212358311204991 -0.7836236610338043 0
outer loop
vertex 20.84309196472168 -67.3780746459961 0
vertex 22.48070526123047 -66.07981872558594 -28.187545776367188
vertex 22.48070526123047 -66.07981872558594 0
endloop
endfacet
facet normal 0 -1 0
outer loop
vertex 22.48070526123047 -66.07981872558594 0
vertex 40.34684371948242 -66.07981872558594 -29.75063133239746
vertex 40.34684371948242 -66.07981872558594 0
endloop
endfacet
facet normal 0.3601358248366361 -0.9328998808389011 0
outer loop
vertex 40.34684371948242 -66.07981872558594 0
vertex 41.38975143432617 -65.67721557617188 -29.806514739990234
vertex 41.38975143432617 -65.67721557617188 0
endloop
endfacet
facet normal 0.671945030430162 -0.7406010235479078 0
outer loop
vertex 41.38975143432617 -65.67721557617188 0
vertex 43.90448760986328 -63.39560317993164 -29.826148986816406
vertex 43.90448760986328 -63.39560317993164 0
endloop
endfacet
facet normal 0.9160338922873368 -0.4011008703317808 0
outer loop
vertex 44.419002532958984 -62.22055435180664 -29.767967224121094
vertex 44.419002532958984 -62.22055435180664 0
vertex 43.90448760986328 -63.39560317993164 0
endloop
endfacet
facet normal 0.9999636849597726 0.00852225097451252 0
outer loop
vertex 44.419002532958984 -62.22055435180664 0
vertex 44.26783752441406 -44.48351287841797 -28.197023391723633
vertex 44.26783752441406 -44.48351287841797 0
endloop
endfacet
facet normal 0 0 1
outer loop
vertex 20.84309196472168 -67.3780746459961 0
vertex -39.23017120361328 -67.36956024169922 0
vertex 20.279918670654297 -69.78157043457031 0
endloop
endfacet
facet normal 0 0 1
outer loop
vertex -40.863529205322266 -66.0718002319336 0
vertex 20.84309196472168 -67.3780746459961 0
vertex 22.48070526123047 -66.07981872558594 0
endloop
endfacet
facet normal 0 0 1
outer loop
vertex -40.863529205322266 -66.0718002319336 0
vertex 22.48070526123047 -66.07981872558594 0
vertex 44.26783752441406 -44.48351287841797 0
endloop
endfacet
facet normal 0 0 1
outer loop
vertex 44.26783752441406 -44.48351287841797 0
vertex 22.48070526123047 -66.07981872558594 0
vertex 40.34684371948242 -66.07981872558594 0
endloop
endfacet
facet normal 0 0 1
outer loop
vertex 44.26783752441406 -44.48351287841797 0
vertex 40.34684371948242 -66.07981872558594 0
vertex 41.38975143432617 -65.67721557617188 0
endloop
endfacet
facet normal 0 0 1
outer loop
vertex 44.26783752441406 -44.48351287841797 0
vertex 41.38975143432617 -65.67721557617188 0
vertex 43.90448760986328 -63.39560317993164 0
endloop
endfacet
facet normal 0 0 1
outer loop
vertex 44.26783752441406 -44.48351287841797 0
vertex 43.90448760986328 -63.39560317993164 0
vertex 44.419002532958984 -62.22055435180664 0
endloop
endfacet
facet normal 0 0 1
outer loop
vertex 66.21060943603516 -6.178949356079102 0
vertex -40.863529205322266 -66.0718002319336 0
vertex 44.26783752441406 -44.48351287841797 0
endloop
endfacet
facet normal -0.642787832459638 -0.766044256190098 0
outer loop
vertex 49.43280792236328 -44.366920471191406 0
vertex 49.61339569091797 -44.51845169067383 -28.667768478393555
vertex 49.61339569091797 -44.51845169067383 0
endloop
endfacet
facet normal -0.5807033510318002 -0.814115236376545 0
outer loop
vertex 49.61339569091797 -44.51845169067383 0
vertex 51.91318130493164 -46.15887451171875 -29.01304054260254
vertex 51.91318130493164 -46.15887451171875 0
endloop
endfacet
facet normal -0.44619781568861994 -0.8949343603162773 0
outer loop
vertex 52.11524963378906 -46.28029251098633 0
vertex 54.643341064453125 -47.54075241088867 -29.373258590698242
vertex 54.643341064453125 -47.54075241088867 0
endloop
endfacet
facet normal -0.5150477307527256 -0.8571614988124864 0
outer loop
vertex 51.91318130493164 -46.15887451171875 0
vertex 52.11524963378906 -46.28029251098633 -29.0413818359375
vertex 52.11524963378906 -46.28029251098633 0
endloop
endfacet
facet normal -0.37460805841030964 -0.9271832626692839 0
outer loop
vertex 54.643341064453125 -47.54075241088867 0
vertex 54.861915588378906 -47.62906265258789 -29.400136947631836
vertex 54.861915588378906 -47.62906265258789 0
endloop
endfacet
facet normal -0.30070537434808264 -0.9537170847993548 0
outer loop
vertex 54.861915588378906 -47.62906265258789 0
vertex 57.55606460571289 -48.47852325439453 -29.710445404052734
vertex 57.55606460571289 -48.47852325439453 0
endloop
endfacet
facet normal 0.3906377993451813 -0.9205444637402117 0
outer loop
vertex 44.26783752441406 -44.48351287841797 0
vertex 47.95795822143555 -42.9175910949707 -28.382343292236328
vertex 47.95795822143555 -42.9175910949707 0
endloop
endfacet
facet normal -0.7009089227221215 -0.7132507848215206 0
outer loop
vertex 47.95795822143555 -42.9175910949707 0
vertex 49.43280792236328 -44.366920471191406 -28.638660430908203
vertex 49.43280792236328 -44.366920471191406 0
endloop
endfacet
facet normal -0.06976004580641708 -0.9975638004704694 0
outer loop
vertex 60.57962417602539 -48.9490966796875 0
vertex 60.814788818359375 -48.96554183959961 -30.038318634033203
vertex 60.814788818359375 -48.96554183959961 0
endloop
endfacet
facet normal -0.14780938909448466 -0.9890158666550882 0
outer loop
vertex 57.785762786865234 -48.531551361083984 0
vertex 60.57962417602539 -48.9490966796875 -30.016300201416016
vertex 60.57962417602539 -48.9490966796875 0
endloop
endfacet
facet normal 0.008726203869739177 -0.9999619259581956 0
outer loop
vertex 60.814788818359375 -48.96554183959961 0
vertex 63.63957214355469 -48.94089126586914 -30.28329086303711
vertex 63.63957214355469 -48.94089126586914 0
endloop
endfacet
facet normal 0.0871547054675706 -0.99619478884145 0
outer loop
vertex 63.63957214355469 -48.94089126586914 0
vertex 63.63957214355469 -48.94089126586914 -30.28329086303711
vertex 63.87441635131836 -48.920345306396484 0
endloop
endfacet
facet normal 0.16504743782366427 -0.986285629656969 0
outer loop
vertex 63.87441635131836 -48.920345306396484 0
vertex 67.3169174194336 -48.344268798828125 -30.55261993408203
vertex 67.3169174194336 -48.344268798828125 0
endloop
endfacet
facet normal -0.2630313416760666 -0.9647872891451712 0
outer loop
vertex 67.3169174194336 -48.344268798828125 0
vertex 68.58699798583984 -48.69053268432617 -30.69414710998535
vertex 68.58699798583984 -48.69053268432617 0
endloop
endfacet
facet normal -0.22494341494115078 -0.9743718284487772 0
outer loop
vertex 57.55606460571289 -48.47852325439453 0
vertex 57.785762786865234 -48.531551361083984 -29.735198974609375
vertex 57.785762786865234 -48.531551361083984 0
endloop
endfacet
facet normal 0.0871556401122236 -0.9961947070711772 0
outer loop
vertex 75.41121673583984 -54.41673278808594 0
vertex 77.88703918457031 -54.20012664794922 -31.991662979125977
vertex 77.88703918457031 -54.20012664794922 0
endloop
endfacet
facet normal -0.6427876536609808 -0.7660444062200383 0
outer loop
vertex 68.58699798583984 -48.69053268432617 0
vertex 75.41121673583984 -54.41673278808594 -31.79408073425293
vertex 75.41121673583984 -54.41673278808594 0
endloop
endfacet
facet normal 0.7660443684426259 -0.6427876986823399 0
outer loop
vertex 77.88703918457031 -54.20012664794922 0
vertex 89.1263656616211 -40.80562210083008 -31.798633575439453
vertex 89.1263656616211 -40.80562210083008 0
endloop
endfacet
facet normal 0.9961947070711771 0.08715564011222358 0
outer loop
vertex 88.90975952148438 -38.32979965209961 -31.56224822998047
vertex 88.90975952148438 -38.32979965209961 0
vertex 89.1263656616211 -40.80562210083008 0
endloop
endfacet
facet normal 0 0 1
outer loop
vertex 54.861915588378906 -47.62906265258789 0
vertex 57.55606460571289 -48.47852325439453 0
vertex 66.32305908203125 -10.45677375793457 0
endloop
endfacet
facet normal 0 0 1
outer loop
vertex 66.32305908203125 -10.45677375793457 0
vertex 57.55606460571289 -48.47852325439453 0
vertex 57.785762786865234 -48.531551361083984 0
endloop
endfacet
facet normal 0 0 1
outer loop
vertex 57.785762786865234 -48.531551361083984 0
vertex 60.57962417602539 -48.9490966796875 0
vertex 66.32305908203125 -10.45677375793457 0
endloop
endfacet
facet normal 0 0 1
outer loop
vertex 66.32305908203125 -10.45677375793457 0
vertex 60.57962417602539 -48.9490966796875 0
vertex 60.814788818359375 -48.96554183959961 0
endloop
endfacet
facet normal 0 0 1
outer loop
vertex 68.58699798583984 -48.69053268432617 0
vertex 75.41121673583984 -54.41673278808594 0
vertex 82.08554077148438 -32.603599548339844 0
endloop
endfacet
facet normal 0 0 1
outer loop
vertex 82.08554077148438 -32.603599548339844 0
vertex 75.41121673583984 -54.41673278808594 0
vertex 77.88703918457031 -54.20012664794922 0
endloop
endfacet
facet normal 0 0 1
outer loop
vertex 63.87441635131836 -48.920345306396484 0
vertex 67.3169174194336 -48.344268798828125 0
vertex 81.52398681640625 -31.41293716430664 0
endloop
endfacet
facet normal 0 0 1
outer loop
vertex 60.814788818359375 -48.96554183959961 0
vertex 63.63957214355469 -48.94089126586914 0
vertex 81.00674438476562 -24.90171241760254 0
endloop
endfacet
facet normal 0 0 1
outer loop
vertex 81.00674438476562 -24.90171241760254 0
vertex 63.63957214355469 -48.94089126586914 0
vertex 63.87441635131836 -48.920345306396484 0
endloop
endfacet
facet normal 0 0 1
outer loop
vertex 81.52398681640625 -31.41293716430664 0
vertex 67.3169174194336 -48.344268798828125 0
vertex 68.58699798583984 -48.69053268432617 0
endloop
endfacet
facet normal 0 0 1
outer loop
vertex 63.87441635131836 -48.920345306396484 0
vertex 81.52398681640625 -31.41293716430664 0
vertex 81.4935302734375 -27.922706604003906 0
endloop
endfacet
facet normal 0 0 1
outer loop
vertex 81.52398681640625 -31.41293716430664 0
vertex 68.58699798583984 -48.69053268432617 0
vertex 82.08554077148438 -32.603599548339844 0
endloop
endfacet
facet normal 0 0 1
outer loop
vertex 82.08554077148438 -32.603599548339844 0
vertex 77.88703918457031 -54.20012664794922 0
vertex 89.1263656616211 -40.80562210083008 0
endloop
endfacet
facet normal 0 0 1
outer loop
vertex 82.08554077148438 -32.603599548339844 0
vertex 89.1263656616211 -40.80562210083008 0
vertex 88.90975952148438 -38.32979965209961 0
endloop
endfacet
facet normal 0.30070604845456045 0.9537168722544671 0
outer loop
vertex 66.32305908203125 -10.45677375793457 -27.13827896118164
vertex 66.32305908203125 -10.45677375793457 0
vertex 69.25299835205078 -11.38058090209961 0
endloop
endfacet
facet normal 0.9996546851266058 0.0262775665621212 0
outer loop
vertex 66.21060943603516 -6.178949356079102 -26.752750396728516
vertex 66.21060943603516 -6.178949356079102 0
vertex 66.32305908203125 -10.45677375793457 0
endloop
endfacet
facet normal 0.8870107506802652 0.46174877171209927 0
outer loop
vertex 78.6568603515625 -19.27135467529297 -28.99146842956543
vertex 78.6568603515625 -19.27135467529297 0
vertex 79.96125030517578 -21.777063369750977 0
endloop
endfacet
facet normal 0.8480469367006944 0.52992111974573 0
outer loop
vertex 78.53193664550781 -19.071435928344727 -28.962982177734375
vertex 78.53193664550781 -19.071435928344727 0
vertex 78.6568603515625 -19.27135467529297 0
endloop
endfacet
facet normal 0.9044548177559775 0.42656943472077513 0
outer loop
vertex 81.52398681640625 -31.41293716430664 -30.308618545532227
vertex 81.52398681640625 -31.41293716430664 0
vertex 82.08554077148438 -32.603599548339844 0
endloop
endfacet
facet normal 0.6427876536609808 0.7660444062200382 0
outer loop
vertex 88.90975952148438 -38.32979965209961 0
vertex 82.08554077148438 -32.603599548339844 -30.462316513061523
vertex 82.08554077148438 -32.603599548339844 0
endloop
endfacet
facet normal 0.9999619286583803 0.008725894441958142 0
outer loop
vertex 81.4935302734375 -27.922706604003906 -29.999431610107422
vertex 81.4935302734375 -27.922706604003906 0
vertex 81.52398681640625 -31.41293716430664 0
endloop
endfacet
facet normal 0.99619478884145 0.0871547054675706 0
outer loop
vertex 81.47298431396484 -27.687862396240234 -29.97701072692871
vertex 81.47298431396484 -27.687862396240234 0
vertex 81.4935302734375 -27.922706604003906 0
endloop
endfacet
facet normal 0.9702889103906481 0.24194923098230497 0
outer loop
vertex 80.94970703125 -24.672975540161133 -29.666454315185547
vertex 80.94970703125 -24.672975540161133 0
vertex 81.00674438476562 -24.90171241760254 0
endloop
endfacet
facet normal 0.9862856982038742 0.16504702820255954 0
outer loop
vertex 81.00674438476562 -24.90171241760254 -29.691532135009766
vertex 81.00674438476562 -24.90171241760254 0
vertex 81.47298431396484 -27.687862396240234 0
endloop
endfacet
facet normal 0.948324092579976 0.3173033492296692 0
outer loop
vertex 80.05335998535156 -21.994064331054688 -29.352764129638672
vertex 80.05335998535156 -21.994064331054688 0
vertex 80.94970703125 -24.672975540161133 0
endloop
endfacet
facet normal 0.9205075432298513 0.3907247917101544 0
outer loop
vertex 79.96125030517578 -21.777063369750977 -29.325647354125977
vertex 79.96125030517578 -21.777063369750977 0
vertex 80.05335998535156 -21.994064331054688 0
endloop
endfacet
facet normal 0.5807027126235853 0.8141156917487892 0
outer loop
vertex 72.20173645019531 -12.8507661819458 -27.862844467163086
vertex 72.20173645019531 -12.8507661819458 0
vertex 74.50152587890625 -14.491189002990723 0
endloop
endfacet
facet normal 0.37460805841030964 0.9271832626692839 0
outer loop
vertex 69.25299835205078 -11.38058090209961 -27.47574806213379
vertex 69.25299835205078 -11.38058090209961 0
vertex 69.47157287597656 -11.468891143798828 0
endloop
endfacet
facet normal 0.44619781568862 0.8949343603162773 0
outer loop
vertex 69.47157287597656 -11.468891143798828 -27.502626419067383
vertex 69.47157287597656 -11.468891143798828 0
vertex 71.99966430664062 -12.729351043701172 0
endloop
endfacet
facet normal 0.5150316700552839 0.8571711490945465 0
outer loop
vertex 71.99966430664062 -12.729351043701172 -27.834503173828125
vertex 71.99966430664062 -12.729351043701172 0
vertex 72.20173645019531 -12.8507661819458 0
endloop
endfacet
facet normal 0.7547183840686998 0.656048901187046 0
outer loop
vertex 76.69696807861328 -16.622711181640625 -28.58738899230957
vertex 76.69696807861328 -16.622711181640625 0
vertex 76.85162353515625 -16.800626754760742 0
endloop
endfacet
facet normal 0.6427878324596379 0.7660442561900979 0
outer loop
vertex 74.50152587890625 -14.491189002990723 -28.20811653137207
vertex 74.50152587890625 -14.491189002990723 0
vertex 74.68211364746094 -14.642720222473145 0
endloop
endfacet
facet normal 0.700909088552393 0.7132506218606849 0
outer loop
vertex 74.68211364746094 -14.642720222473145 -28.237224578857422
vertex 74.68211364746094 -14.642720222473145 0
vertex 76.69696807861328 -16.622711181640625 0
endloop
endfacet
facet normal 0.8038564013903697 0.594823407360306 0
outer loop
vertex 76.85162353515625 -16.800626754760742 -28.616544723510742
vertex 76.85162353515625 -16.800626754760742 0
vertex 78.53193664550781 -19.071435928344727 0
endloop
endfacet
facet normal 0.35039644556371363 -0.9366014792516161 0
outer loop
vertex 66.21060943603516 -6.178949356079102 0
vertex 85.04627227783203 0.8677502870559692 -27.781797409057617
vertex 85.04627227783203 0.8677502870559692 0
endloop
endfacet
facet normal 0 0 1
outer loop
vertex 44.26783752441406 -44.48351287841797 0
vertex 47.95795822143555 -42.9175910949707 0
vertex 66.32305908203125 -10.45677375793457 0
endloop
endfacet
facet normal 0 0 1
outer loop
vertex 49.61339569091797 -44.51845169067383 0
vertex 51.91318130493164 -46.15887451171875 0
vertex 66.32305908203125 -10.45677375793457 0
endloop
endfacet
facet normal 0 0 1
outer loop
vertex 66.32305908203125 -10.45677375793457 0
vertex 51.91318130493164 -46.15887451171875 0
vertex 52.11524963378906 -46.28029251098633 0
endloop
endfacet
facet normal 0 0 1
outer loop
vertex 66.32305908203125 -10.45677375793457 0
vertex 47.95795822143555 -42.9175910949707 0
vertex 49.43280792236328 -44.366920471191406 0
endloop
endfacet
facet normal 0 0 1
outer loop
vertex 49.43280792236328 -44.366920471191406 0
vertex 49.61339569091797 -44.51845169067383 0
vertex 66.32305908203125 -10.45677375793457 0
endloop
endfacet
facet normal 0 0 1
outer loop
vertex 66.32305908203125 -10.45677375793457 0
vertex 52.11524963378906 -46.28029251098633 0
vertex 54.643341064453125 -47.54075241088867 0
endloop
endfacet
facet normal 0 0 1
outer loop
vertex 66.32305908203125 -10.45677375793457 0
vertex 54.643341064453125 -47.54075241088867 0
vertex 54.861915588378906 -47.62906265258789 0
endloop
endfacet
facet normal 0 0 1
outer loop
vertex 66.21060943603516 -6.178949356079102 0
vertex 44.26783752441406 -44.48351287841797 0
vertex 66.32305908203125 -10.45677375793457 0
endloop
endfacet
facet normal 0 0 1
outer loop
vertex 66.32305908203125 -10.45677375793457 0
vertex 60.814788818359375 -48.96554183959961 0
vertex 69.25299835205078 -11.38058090209961 0
endloop
endfacet
facet normal 0 0 1
outer loop
vertex 69.47157287597656 -11.468891143798828 0
vertex 69.25299835205078 -11.38058090209961 0
vertex 60.814788818359375 -48.96554183959961 0
endloop
endfacet
facet normal 0 0 1
outer loop
vertex 71.99966430664062 -12.729351043701172 0
vertex 69.47157287597656 -11.468891143798828 0
vertex 60.814788818359375 -48.96554183959961 0
endloop
endfacet
facet normal 0 0 1
outer loop
vertex 60.814788818359375 -48.96554183959961 0
vertex 80.94970703125 -24.672975540161133 0
vertex 80.05335998535156 -21.994064331054688 0
endloop
endfacet
facet normal 0 0 1
outer loop
vertex 60.814788818359375 -48.96554183959961 0
vertex 76.69696807861328 -16.622711181640625 0
vertex 74.68211364746094 -14.642720222473145 0
endloop
endfacet
facet normal 0 0 1
outer loop
vertex 79.96125030517578 -21.777063369750977 0
vertex 78.6568603515625 -19.27135467529297 0
vertex 60.814788818359375 -48.96554183959961 0
endloop
endfacet
facet normal 0 0 1
outer loop
vertex 80.05335998535156 -21.994064331054688 0
vertex 79.96125030517578 -21.777063369750977 0
vertex 60.814788818359375 -48.96554183959961 0
endloop
endfacet
facet normal 0 0 1
outer loop
vertex 78.6568603515625 -19.27135467529297 0
vertex 78.53193664550781 -19.071435928344727 0
vertex 60.814788818359375 -48.96554183959961 0
endloop
endfacet
facet normal 0 0 1
outer loop
vertex 60.814788818359375 -48.96554183959961 0
vertex 78.53193664550781 -19.071435928344727 0
vertex 76.85162353515625 -16.800626754760742 0
endloop
endfacet
facet normal 0 0 1
outer loop
vertex 76.85162353515625 -16.800626754760742 0
vertex 76.69696807861328 -16.622711181640625 0
vertex 60.814788818359375 -48.96554183959961 0
endloop
endfacet
facet normal 0 0 1
outer loop
vertex 63.87441635131836 -48.920345306396484 0
vertex 81.4935302734375 -27.922706604003906 0
vertex 81.47298431396484 -27.687862396240234 0
endloop
endfacet
facet normal 0 0 1
outer loop
vertex 81.00674438476562 -24.90171241760254 0
vertex 63.87441635131836 -48.920345306396484 0
vertex 81.47298431396484 -27.687862396240234 0
endloop
endfacet
facet normal 0 0 1
outer loop
vertex 80.94970703125 -24.672975540161133 0
vertex 60.814788818359375 -48.96554183959961 0
vertex 81.00674438476562 -24.90171241760254 0
endloop
endfacet
facet normal 0 0 1
outer loop
vertex 71.99966430664062 -12.729351043701172 0
vertex 60.814788818359375 -48.96554183959961 0
vertex 72.20173645019531 -12.8507661819458 0
endloop
endfacet
facet normal 0 0 1
outer loop
vertex 74.50152587890625 -14.491189002990723 0
vertex 72.20173645019531 -12.8507661819458 0
vertex 60.814788818359375 -48.96554183959961 0
endloop
endfacet
facet normal 0 0 1
outer loop
vertex 74.68211364746094 -14.642720222473145 0
vertex 74.50152587890625 -14.491189002990723 0
vertex 60.814788818359375 -48.96554183959961 0
endloop
endfacet
facet normal -0.08682633116082046 0.0871524695751402 -0.992403967779304
outer loop
vertex 80.94970703125 -24.672975540161133 -29.666454315185547
vertex 81.00674438476562 -24.90171241760254 -29.691532135009766
vertex -32.14756774902344 52.17921447753906 -13.022345542907715
endloop
endfacet
facet normal -0.08682398140023667 0.08715590668174962 -0.9924038715081142
outer loop
vertex 80.05335998535156 -21.994064331054688 -29.352764129638672
vertex 80.94970703125 -24.672975540161133 -29.666454315185547
vertex -32.14756774902344 52.17921447753906 -13.022345542907715
endloop
endfacet
facet normal -0.08682411299753098 0.08715568179553916 -0.9924038797450092
outer loop
vertex -32.14756774902344 52.17921447753906 -13.022345542907715
vertex 66.21060943603516 -6.178949356079102 -26.752750396728516
vertex 66.32305908203125 -10.45677375793457 -27.13827896118164
endloop
endfacet
facet normal -0.08682348715603902 0.08715665869144416 -0.9924038487046533
outer loop
vertex 78.53193664550781 -19.071435928344727 -28.962982177734375
vertex -32.14756774902344 52.17921447753906 -13.022345542907715
vertex 66.32305908203125 -10.45677375793457 -27.13827896118164
endloop
endfacet
facet normal -0.08682165040149303 0.08715940991293955 -0.9924037677705526
outer loop
vertex 79.96125030517578 -21.777063369750977 -29.325647354125977
vertex 80.05335998535156 -21.994064331054688 -29.352764129638672
vertex -32.14756774902344 52.17921447753906 -13.022345542907715
endloop
endfacet
facet normal -0.08682364538326065 0.08715640545330741 -0.9924038571019463
outer loop
vertex 78.6568603515625 -19.27135467529297 -28.99146842956543
vertex 79.96125030517578 -21.777063369750977 -29.325647354125977
vertex -32.14756774902344 52.17921447753906 -13.022345542907715
endloop
endfacet
facet normal -0.08682725150607645 0.08715085162996324 -0.9924040293429247
outer loop
vertex 78.53193664550781 -19.071435928344727 -28.962982177734375
vertex 78.6568603515625 -19.27135467529297 -28.99146842956543
vertex -32.14756774902344 52.17921447753906 -13.022345542907715
endloop
endfacet
facet normal -0.08682412740927253 0.08715565770674968 -0.9924038805996893
outer loop
vertex -32.14756774902344 52.17921447753906 -13.022345542907715
vertex 85.04627227783203 0.8677502870559692 -27.781797409057617
vertex 66.21060943603516 -6.178949356079102 -26.752750396728516
endloop
endfacet
facet normal -0.08682487350588355 0.08715436988779339 -0.9924039284233759
outer loop
vertex 25.133249282836914 53.16339111328125 -17.94733428955078
vertex 25.668176651000977 53.271026611328125 -17.984682083129883
vertex 81.61296844482422 20.620054244995117 -25.74671745300293
endloop
endfacet
facet normal -0.08682408560275452 0.08715572530434093 -0.9924038783206764
outer loop
vertex -32.14756774902344 52.17921447753906 -13.022345542907715
vertex 25.133249282836914 53.16339111328125 -17.94733428955078
vertex 81.61296844482422 20.620054244995117 -25.74671745300293
endloop
endfacet
facet normal -0.08682380761486104 0.0871563779604501 -0.9924038453230986
outer loop
vertex -32.14756774902344 52.17921447753906 -13.022345542907715
vertex 85.90095520019531 1.6460257768630981 -27.78822135925293
vertex 85.04627227783203 0.8677502870559692 -27.781797409057617
endloop
endfacet
facet normal -0.08682404029040451 0.087155842216713 -0.9924038720174089
outer loop
vertex -32.14756774902344 52.17921447753906 -13.022345542907715
vertex 87.38835144042969 4.713376998901367 -27.648967742919922
vertex 85.90095520019531 1.6460257768630981 -27.78822135925293
endloop
endfacet
facet normal -0.08682448176930377 0.08715474812208658 -0.9924039294789533
outer loop
vertex -32.14756774902344 52.17921447753906 -13.022345542907715
vertex 87.43452453613281 5.975517749786377 -27.542163848876953
vertex 87.38835144042969 4.713376998901367 -27.648967742919922
endloop
endfacet
facet normal -0.08682405342202755 0.08715583843470794 -0.9924038712006882
outer loop
vertex -32.14756774902344 52.17921447753906 -13.022345542907715
vertex 81.61296844482422 20.620054244995117 -25.74671745300293
vertex 87.43452453613281 5.975517749786377 -27.542163848876953
endloop
endfacet
facet normal -0.08682423425004716 0.08715545582453488 -0.9924038889821575
outer loop
vertex 25.668176651000977 53.271026611328125 -17.984682083129883
vertex 82.58657836914062 22.89598846435547 -25.63201904296875
vertex 81.61296844482422 20.620054244995117 -25.74671745300293
endloop
endfacet
facet normal 0.6732840542663222 -0.7393839207547754 0
outer loop
vertex 85.04627227783203 0.8677502870559692 0
vertex 85.04627227783203 0.8677502870559692 -27.781797409057617
vertex 85.90095520019531 1.6460257768630981 -27.78822135925293
endloop
endfacet
facet normal 0.8997915758055324 -0.43631997445612863 0
outer loop
vertex 87.38835144042969 4.713376998901367 -27.648967742919922
vertex 85.90095520019531 1.6460257768630981 0
vertex 85.90095520019531 1.6460257768630981 -27.78822135925293
endloop
endfacet
facet normal 0.9993315071627146 -0.03655870336728875 0
outer loop
vertex 87.43452453613281 5.975517749786377 -27.542163848876953
vertex 87.38835144042969 4.713376998901367 0
vertex 87.38835144042969 4.713376998901367 -27.648967742919922
endloop
endfacet
facet normal 0.9292679450405961 0.3694063972375516 0
outer loop
vertex 81.61296844482422 20.620054244995117 -25.74671745300293
vertex 87.43452453613281 5.975517749786377 0
vertex 87.43452453613281 5.975517749786377 -27.542163848876953
endloop
endfacet
facet normal 0.9194067071672222 -0.3933081575761247 0
outer loop
vertex 82.58657836914062 22.89598846435547 -25.63201904296875
vertex 81.61296844482422 20.620054244995117 0
vertex 81.61296844482422 20.620054244995117 -25.74671745300293
endloop
endfacet
facet normal 0.3746095819729631 -0.9271826471057586 0
outer loop
vertex 88.65898895263672 25.349424362182617 -25.947818756103516
vertex 82.58657836914062 22.89598846435547 0
vertex 82.58657836914062 22.89598846435547 -25.63201904296875
endloop
endfacet
facet normal 0.6833865624240956 -0.7300567144394865 0
outer loop
vertex 89.47513580322266 26.1133975982666 -25.95212745666504
vertex 88.65898895263672 25.349424362182617 0
vertex 88.65898895263672 25.349424362182617 -25.947818756103516
endloop
endfacet
facet normal 0.9004516312601201 -0.43495615843552404 0
outer loop
vertex 90.94823455810547 29.16302490234375 -25.81317901611328
vertex 89.47513580322266 26.1133975982666 0
vertex 89.47513580322266 26.1133975982666 -25.95212745666504
endloop
endfacet
facet normal 0.9994105899522011 -0.03432889004021607 0
outer loop
vertex 90.99166870117188 30.427515029907227 -25.705928802490234
vertex 90.94823455810547 29.16302490234375 0
vertex 90.94823455810547 29.16302490234375 -25.81317901611328
endloop
endfacet
facet normal -0.08682414145785164 0.08715572191748756 -0.9924038737314302
outer loop
vertex 75.58979797363281 68.84129333496094 -20.984832763671875
vertex 88.65898895263672 25.349424362182617 -25.947818756103516
vertex 82.58657836914062 22.89598846435547 -25.63201904296875
endloop
endfacet
facet normal -0.08682353307805037 0.08715590893357172 -0.9924039105333107
outer loop
vertex 75.58979797363281 68.84129333496094 -20.984832763671875
vertex 89.47513580322266 26.1133975982666 -25.95212745666504
vertex 88.65898895263672 25.349424362182617 -25.947818756103516
endloop
endfacet
facet normal -0.0868237048203735 0.08715585195720252 -0.9924039005117216
outer loop
vertex 75.58979797363281 68.84129333496094 -20.984832763671875
vertex 90.94823455810547 29.16302490234375 -25.81317901611328
vertex 89.47513580322266 26.1133975982666 -25.95212745666504
endloop
endfacet
facet normal -0.08682570501732309 0.08715506484939449 -0.9924037946417489
outer loop
vertex 75.58979797363281 68.84129333496094 -20.984832763671875
vertex 90.99166870117188 30.427515029907227 -25.705928802490234
vertex 90.94823455810547 29.16302490234375 -25.81317901611328
endloop
endfacet
facet normal -0.08682407827674352 0.08715574513454323 -0.9924038772200743
outer loop
vertex 25.668176651000977 53.271026611328125 -17.984682083129883
vertex 70.51126861572266 71.17921447753906 -20.335195541381836
vertex 82.58657836914062 22.89598846435547 -25.63201904296875
endloop
endfacet
facet normal -0.08682336114052847 0.087155929591232 -0.9924039237615647
outer loop
vertex 70.51126861572266 71.17921447753906 -20.335195541381836
vertex 71.77357482910156 71.1349868774414 -20.44951629638672
vertex 82.58657836914062 22.89598846435547 -25.63201904296875
endloop
endfacet
facet normal -0.08682415333184178 0.08715574630113695 -0.9924038705511485
outer loop
vertex 71.77357482910156 71.1349868774414 -20.44951629638672
vertex 74.8240966796875 69.66146087646484 -20.84581184387207
vertex 82.58657836914062 22.89598846435547 -25.63201904296875
endloop
endfacet
facet normal -0.08682607612351595 0.08715541292141245 -0.9924037316049812
outer loop
vertex 74.8240966796875 69.66146087646484 -20.84581184387207
vertex 75.58979797363281 68.84129333496094 -20.984832763671875
vertex 82.58657836914062 22.89598846435547 -25.63201904296875
endloop
endfacet
facet normal 0 0 1
outer loop
vertex -32.14756774902344 52.17921447753906 0
vertex -33.16631317138672 51.773887634277344 0
vertex 66.21060943603516 -6.178949356079102 0
endloop
endfacet
facet normal 0 0 1
outer loop
vertex 25.133249282836914 53.16339111328125 0
vertex -32.14756774902344 52.17921447753906 0
vertex 66.21060943603516 -6.178949356079102 0
endloop
endfacet
facet normal -0.017179074088372853 0.9998524288181061 0
outer loop
vertex -32.14756774902344 52.17921447753906 -13.022345542907715
vertex 25.133249282836914 53.16339111328125 0
vertex 25.133249282836914 53.16339111328125 -17.94733428955078
endloop
endfacet
facet normal -0.1972614696138049 0.9803509129927924 0
outer loop
vertex 25.133249282836914 53.16339111328125 -17.94733428955078
vertex 25.668176651000977 53.271026611328125 0
vertex 25.668176651000977 53.271026611328125 -17.984682083129883
endloop
endfacet
facet normal -0.19726146961380492 0.9803509129927925 0
outer loop
vertex 25.133249282836914 53.16339111328125 -17.94733428955078
vertex 25.133249282836914 53.16339111328125 0
vertex 25.668176651000977 53.271026611328125 0
endloop
endfacet
facet normal 0 0 1
outer loop
vertex 25.668176651000977 53.271026611328125 0
vertex 25.133249282836914 53.16339111328125 0
vertex 81.61296844482422 20.620054244995117 0
endloop
endfacet
facet normal -0.37087200421560795 0.9286839917265173 0
outer loop
vertex 70.51126861572266 71.17921447753906 0
vertex 25.668176651000977 53.271026611328125 -17.984682083129883
vertex 25.668176651000977 53.271026611328125 0
endloop
endfacet
facet normal 0.6732840542663221 -0.7393839207547754 0
outer loop
vertex 85.04627227783203 0.8677502870559692 0
vertex 85.90095520019531 1.6460257768630981 -27.78822135925293
vertex 85.90095520019531 1.6460257768630981 0
endloop
endfacet
facet normal 0.8997915758055325 -0.4363199744561287 0
outer loop
vertex 85.90095520019531 1.6460257768630981 0
vertex 87.38835144042969 4.713376998901367 -27.648967742919922
vertex 87.38835144042969 4.713376998901367 0
endloop
endfacet
facet normal 0.9993315071627146 -0.03655870336728875 0
outer loop
vertex 87.43452453613281 5.975517749786377 -27.542163848876953
vertex 87.43452453613281 5.975517749786377 0
vertex 87.38835144042969 4.713376998901367 0
endloop
endfacet
facet normal 0.9292679450405961 0.3694063972375516 0
outer loop
vertex 87.43452453613281 5.975517749786377 0
vertex 81.61296844482422 20.620054244995117 -25.74671745300293
vertex 81.61296844482422 20.620054244995117 0
endloop
endfacet
facet normal 0.9194067071672222 -0.3933081575761247 0
outer loop
vertex 82.58657836914062 22.89598846435547 -25.63201904296875
vertex 82.58657836914062 22.89598846435547 0
vertex 81.61296844482422 20.620054244995117 0
endloop
endfacet
facet normal 0.3746095819729632 -0.9271826471057587 0
outer loop
vertex 82.58657836914062 22.89598846435547 0
vertex 88.65898895263672 25.349424362182617 -25.947818756103516
vertex 88.65898895263672 25.349424362182617 0
endloop
endfacet
facet normal 0.6833865624240955 -0.7300567144394864 0
outer loop
vertex 88.65898895263672 25.349424362182617 0
vertex 89.47513580322266 26.1133975982666 -25.95212745666504
vertex 89.47513580322266 26.1133975982666 0
endloop
endfacet
facet normal 0.9004516312601201 -0.43495615843552404 0
outer loop
vertex 89.47513580322266 26.1133975982666 0
vertex 90.94823455810547 29.16302490234375 -25.81317901611328
vertex 90.94823455810547 29.16302490234375 0
endloop
endfacet
facet normal 0.9994105899522011 -0.03432889004021607 0
outer loop
vertex 90.99166870117188 30.427515029907227 -25.705928802490234
vertex 90.99166870117188 30.427515029907227 0
vertex 90.94823455810547 29.16302490234375 0
endloop
endfacet
facet normal 0 0 1
outer loop
vertex 25.133249282836914 53.16339111328125 0
vertex 66.21060943603516 -6.178949356079102 0
vertex 85.04627227783203 0.8677502870559692 0
endloop
endfacet
facet normal 0 0 1
outer loop
vertex 85.04627227783203 0.8677502870559692 0
vertex 85.90095520019531 1.6460257768630981 0
vertex 25.133249282836914 53.16339111328125 0
endloop
endfacet
facet normal 0 0 1
outer loop
vertex 85.90095520019531 1.6460257768630981 0
vertex 87.38835144042969 4.713376998901367 0
vertex 25.133249282836914 53.16339111328125 0
endloop
endfacet
facet normal 0 0 1
outer loop
vertex 87.38835144042969 4.713376998901367 0
vertex 87.43452453613281 5.975517749786377 0
vertex 25.133249282836914 53.16339111328125 0
endloop
endfacet
facet normal 0 0 1
outer loop
vertex 81.61296844482422 20.620054244995117 0
vertex 25.133249282836914 53.16339111328125 0
vertex 87.43452453613281 5.975517749786377 0
endloop
endfacet
facet normal 0 0 1
outer loop
vertex 81.61296844482422 20.620054244995117 0
vertex 82.58657836914062 22.89598846435547 0
vertex 25.668176651000977 53.271026611328125 0
endloop
endfacet
facet normal 0 0 1
outer loop
vertex 89.47513580322266 26.1133975982666 0
vertex 90.94823455810547 29.16302490234375 0
vertex 90.99166870117188 30.427515029907227 0
endloop
endfacet
facet normal -0.37087200421560795 0.9286839917265173 0
outer loop
vertex 25.668176651000977 53.271026611328125 -17.984682083129883
vertex 70.51126861572266 71.17921447753906 0
vertex 70.51126861572266 71.17921447753906 -20.335195541381836
endloop
endfacet
facet normal 0.9281734390219712 0.3721479102374846 0
outer loop
vertex 75.58979797363281 68.84129333496094 -20.984832763671875
vertex 90.99166870117188 30.427515029907227 0
vertex 90.99166870117188 30.427515029907227 -25.705928802490234
endloop
endfacet
facet normal 0.03501565441896434 0.9993867639435755 0
outer loop
vertex 70.51126861572266 71.17921447753906 -20.335195541381836
vertex 71.77357482910156 71.1349868774414 0
vertex 71.77357482910156 71.1349868774414 -20.44951629638672
endloop
endfacet
facet normal 0.4349549958287032 0.9004521928473787 0
outer loop
vertex 71.77357482910156 71.1349868774414 -20.44951629638672
vertex 74.8240966796875 69.66146087646484 0
vertex 74.8240966796875 69.66146087646484 -20.84581184387207
endloop
endfacet
facet normal 0.7309611978056438 0.6824190261873846 0
outer loop
vertex 74.8240966796875 69.66146087646484 -20.84581184387207
vertex 75.58979797363281 68.84129333496094 0
vertex 75.58979797363281 68.84129333496094 -20.984832763671875
endloop
endfacet
facet normal 0 0 1
outer loop
vertex 70.51126861572266 71.17921447753906 0
vertex 25.668176651000977 53.271026611328125 0
vertex 82.58657836914062 22.89598846435547 0
endloop
endfacet
facet normal 0 0 1
outer loop
vertex 82.58657836914062 22.89598846435547 0
vertex 88.65898895263672 25.349424362182617 0
vertex 75.58979797363281 68.84129333496094 0
endloop
endfacet
facet normal 0 0 1
outer loop
vertex 75.58979797363281 68.84129333496094 0
vertex 88.65898895263672 25.349424362182617 0
vertex 89.47513580322266 26.1133975982666 0
endloop
endfacet
facet normal 0 0 1
outer loop
vertex 75.58979797363281 68.84129333496094 0
vertex 89.47513580322266 26.1133975982666 0
vertex 90.99166870117188 30.427515029907227 0
endloop
endfacet
facet normal 0.035015654418964336 0.9993867639435754 0
outer loop
vertex 70.51126861572266 71.17921447753906 -20.335195541381836
vertex 70.51126861572266 71.17921447753906 0
vertex 71.77357482910156 71.1349868774414 0
endloop
endfacet
facet normal 0.4349549958287032 0.9004521928473787 0
outer loop
vertex 71.77357482910156 71.1349868774414 -20.44951629638672
vertex 71.77357482910156 71.1349868774414 0
vertex 74.8240966796875 69.66146087646484 0
endloop
endfacet
facet normal 0.7309611978056438 0.6824190261873846 0
outer loop
vertex 74.8240966796875 69.66146087646484 -20.84581184387207
vertex 74.8240966796875 69.66146087646484 0
vertex 75.58979797363281 68.84129333496094 0
endloop
endfacet
facet normal 0.9281734390219712 0.3721479102374846 0
outer loop
vertex 90.99166870117188 30.427515029907227 0
vertex 75.58979797363281 68.84129333496094 -20.984832763671875
vertex 75.58979797363281 68.84129333496094 0
endloop
endfacet
facet normal 0 0 1
outer loop
vertex 71.77357482910156 71.1349868774414 0
vertex 70.51126861572266 71.17921447753906 0
vertex 82.58657836914062 22.89598846435547 0
endloop
endfacet
facet normal 0 0 1
outer loop
vertex 74.8240966796875 69.66146087646484 0
vertex 71.77357482910156 71.1349868774414 0
vertex 82.58657836914062 22.89598846435547 0
endloop
endfacet
facet normal 0 0 1
outer loop
vertex 74.8240966796875 69.66146087646484 0
vertex 82.58657836914062 22.89598846435547 0
vertex 75.58979797363281 68.84129333496094 0
endloop
endfacet
endsolid auto-kdk-case
